# xmcd
#
# Track frame offsets:
#	150
#	18648
#	36815
#	55022
#	69792
#	85775
#	98620
#	114305
#	133865
#	146860
#	162232
#
# Disc length: 2402 seconds
#
# Revision: 0
# Processed by: cddbd v1.4PL0 Copyright (c) Steve Scherf et al.
# Submitted via: audiograbber 1.81.01
#
DISCID=8b09600b
DTITLE=Interzone - Interzone
DYEAR=1900
DGENRE=Blues
TTITLE0=Hintermänner
TTITLE1=Blues
TTITLE2=Kinderlied
TTITLE3=Berlin west
TTITLE4=Jobs
TTITLE5=Rita+Klaus
TTITLE6=Dilettanten des Wunders
TTITLE7=Die Lebendigen+die Toten
TTITLE8=Liebeslied
TTITLE9=Glotze
TTITLE10=Karl
EXTD=
EXTT0=
EXTT1=
EXTT2=
EXTT3=
EXTT4=
EXTT5=
EXTT6=
EXTT7=
EXTT8=
EXTT9=
EXTT10=
PLAYORDER=
